#!OML:ASF G:\JayActor3\Patient Classification 1\Patient 1\Session 2\male.ASF
:FULLY-SPECIFIED
:DEGREES
4535
root -15.8313 16.9672 -5.37897 5028.79 86.6491 -1452.42
lowerback 1.32964 -0.150673 -2.87465
upperback 7.04637 0.134449 -1.23372
thorax 6.5827 0.0237947 0.336867
lowerneck -9.01715 3.62018 3.79542
upperneck 17.8907 5.24554 -3.59167
head 7.15276 2.54274 -1.31508
rclavicle 3.57812e-015 7.95139e-016
rhumerus -25.0422 -1.26431 -87.4439
rradius 33.2457
rwrist -7.96461
rhand -20.7989 6.26348
rfingers 7.12502
rthumb 5.56848 -23.6434
lclavicle 3.57812e-015 7.95139e-016
lhumerus -9.67272 -6.60243 85.933
lradius 29.5363
lwrist 9.49285
lhand -19.6607 16.6288
lfingers 7.12502
lthumb 6.66741 46.5038
rfemur -30.3905 3.90604 21.5983
rtibia 40.4724
rfoot -21.4929 -12.0339
rtoes 8.22475
lfemur 1.77489 7.35921 -23.7068
ltibia 19.1319
lfoot -13.1577 4.04819
ltoes -11.2715
4536
root -15.7539 16.9757 -5.37998 5029.82 86.732 -1451.4
lowerback 1.39378 -0.152463 -2.92279
upperback 7.05529 0.13236 -1.23447
thorax 6.55574 0.0208256 0.362916
lowerneck -9.09922 3.55461 3.73606
upperneck 17.8324 5.13735 -3.49336
head 7.13997 2.49327 -1.28247
rclavicle 9.14409e-015 -2.46493e-014
rhumerus -24.9562 -1.12696 -87.4829
rradius 33.2902
rwrist -7.99972
rhand -20.7567 6.1885
rfingers 7.12502
rthumb 5.60925 -23.7173
lclavicle 9.14409e-015 -2.46493e-014
lhumerus -9.59598 -6.97706 86.0438
lradius 29.966
lwrist 9.65884
lhand -19.6651 16.6208
lfingers 7.12502
lthumb 6.66307 46.496
rfemur -30.628 3.92075 21.5578
rtibia 39.4466
rfoot -21.3851 -11.9329
rtoes 7.99936
lfemur 2.31676 7.39057 -23.7602
ltibia 18.6003
lfoot -12.8957 4.01694
ltoes -11.553
4537
root -15.6758 16.9838 -5.38085 5030.93 86.8258 -1450.31
lowerback 1.45844 -0.156105 -2.96918
upperback 7.0646 0.127529 -1.23227
thorax 6.52899 0.0165077 0.39095
lowerneck -9.17913 3.48937 3.67668
upperneck 17.7698 5.03029 -3.39812
head 7.12566 2.44412 -1.25083
rclavicle -3.37934e-015 -1.98785e-014
rhumerus -24.8703 -1.00733 -87.5103
rradius 33.3095
rwrist -8.01177
rhand -20.7226 6.14322
rfingers 7.12502
rthumb 5.64216 -23.7617
lclavicle -3.37934e-015 -1.98785e-014
lhumerus -9.55299 -7.32686 86.1663
lradius 30.4029
lwrist 9.83187
lhand -19.6631 16.5821
lfingers 7.12502
lthumb 6.66508 46.4572
rfemur -30.8506 3.91299 21.515
rtibia 38.4459
rfoot -21.2642 -11.8014
rtoes 7.77017
lfemur 2.87098 7.41134 -23.8153
ltibia 18.0508
lfoot -12.6195 3.98841
ltoes -11.8879
4538
root -15.5968 16.9915 -5.38156 5032.12 86.931 -1449.14
lowerback 1.52246 -0.162837 -3.01567
upperback 7.07406 0.118254 -1.22545
thorax 6.50291 0.00980907 0.423668
lowerneck -9.25983 3.42274 3.60745
upperneck 17.7028 4.92242 -3.30026
head 7.10991 2.39416 -1.21683
rclavicle 4.17448e-015 6.36111e-015
rhumerus -24.7878 -0.894943 -87.5257
rradius 33.3088
rwrist -8.00348
rhand -20.7092 6.12529
rfingers 7.12502
rthumb 5.65512 -23.7792
lclavicle 4.17448e-015 6.36111e-015
lhumerus -9.54176 -7.64834 86.3041
lradius 30.844
lwrist 10.0064
lhand -19.6574 16.5563
lfingers 7.12502
lthumb 6.67058 46.4312
rfemur -31.0583 3.88627 21.4685
rtibia 37.469
rfoot -21.1273 -11.6355
rtoes 7.59058
lfemur 3.43577 7.42109 -23.8729
ltibia 17.4842
lfoot -12.3282 3.96579
ltoes -12.2718
4539
root -15.517 16.9984 -5.38215 5033.44 87.0466 -1447.84
lowerback 1.58365 -0.172628 -3.06171
upperback 7.0822 0.104626 -1.21565
thorax 6.4772 0.000842791 0.459078
lowerneck -9.33863 3.35379 3.52596
upperneck 17.633 4.81209 -3.19428
head 7.09251 2.34296 -1.17849
rclavicle -3.18055e-015 6.36111e-015
rhumerus -24.7112 -0.794607 -87.5307
rradius 33.288
rwrist -7.97501
rhand -20.7118 6.13385
rfingers 7.12502
rthumb 5.65261 -23.7708
lclavicle -3.18055e-015 6.36111e-015
lhumerus -9.56312 -7.9413 86.456
lradius 31.2854
lwrist 10.1837
lhand -19.6457 16.5215
lfingers 7.12502
lthumb 6.68186 46.3961
rfemur -31.2538 3.84558 21.4161
rtibia 36.5159
rfoot -20.9673 -11.4413
rtoes 7.47349
lfemur 4.00794 7.42206 -23.9344
ltibia 16.9018
lfoot -12.0322 3.94274
ltoes -12.6389
4540
root -15.4364 17.0046 -5.38247 5034.82 87.1718 -1446.49
lowerback 1.63693 -0.184599 -3.10423
upperback 7.09005 0.0879151 -1.20142
thorax 6.45584 -0.00969863 0.497011
lowerneck -9.41702 3.28227 3.43369
upperneck 17.5571 4.69831 -3.07945
head 7.07269 2.29018 -1.13591
rclavicle -1.98785e-015 1.66979e-014
rhumerus -24.6409 -0.704992 -87.5274
rradius 33.2483
rwrist -7.92046
rhand -20.7462 6.17185
rfingers 7.12502
rthumb 5.6194 -23.7336
lclavicle -1.98785e-015 1.66979e-014
lhumerus -9.61147 -8.21289 86.6216
lradius 31.7225
lwrist 10.36
lhand -19.6466 16.5425
lfingers 7.12502
lthumb 6.68094 46.4171
rfemur -31.4409 3.79992 21.3621
rtibia 35.5858
rfoot -20.7703 -11.226
rtoes 7.39425
lfemur 4.58362 7.41013 -23.9936
ltibia 16.3035
lfoot -11.7283 3.91866
ltoes -12.9841
4541
root -15.3546 17.0101 -5.38259 5036.35 87.3049 -1444.99
lowerback 1.68029 -0.199109 -3.14592
upperback 7.09877 0.06798 -1.18434
thorax 6.44127 -0.0220057 0.537334
lowerneck -9.49789 3.21023 3.33144
upperneck 17.4745 4.58345 -2.95474
head 7.05088 2.237 -1.08862
rclavicle 4.37326e-015 7.95139e-016
rhumerus -24.5734 -0.627254 -87.5161
rradius 33.1905
rwrist -7.83313
rhand -20.8142 6.25554
rfingers 7.12502
rthumb 5.55376 -23.6517
lclavicle 4.37326e-015 7.95139e-016
lhumerus -9.67876 -8.45864 86.7994
lradius 32.1442
lwrist 10.5321
lhand -19.6325 16.5775
lfingers 7.12502
lthumb 6.69457 46.4517
rfemur -31.6204 3.75682 21.2997
rtibia 34.6796
rfoot -20.5477 -10.9895
rtoes 7.36957
lfemur 5.16347 7.39101 -24.0541
ltibia 15.6895
lfoot -11.4214 3.89804
ltoes -13.3453
4542
root -15.2718 17.0149 -5.38246 5038.01 87.4465 -1443.37
lowerback 1.71808 -0.217197 -3.18445
upperback 7.10713 0.0431141 -1.16398
thorax 6.42969 -0.0367652 0.579115
lowerneck -9.58413 3.13842 3.22197
upperneck 17.3869 4.46853 -2.82221
head 7.02836 2.18389 -1.03761
rclavicle 9.93923e-016 1.03368e-014
rhumerus -24.5125 -0.558441 -87.4991
rradius 33.1223
rwrist -7.72583
rhand -20.9057 6.35945
rfingers 7.12502
rthumb 5.46542 -23.5501
lclavicle 9.93923e-016 1.03368e-014
lhumerus -9.76862 -8.68311 86.9882
lradius 32.5487
lwrist 10.6982
lhand -19.625 16.6479
lfingers 7.12502
lthumb 6.70185 46.5219
rfemur -31.7897 3.72665 21.2287
rtibia 33.7969
rfoot -20.2959 -10.7414
rtoes 7.33307
lfemur 5.74756 7.36076 -24.1121
ltibia 15.062
lfoot -11.1124 3.87481
ltoes -13.6875
4543
root -15.1878 17.0189 -5.38205 5039.85 87.5939 -1441.59
lowerback 1.74723 -0.237685 -3.22065
upperback 7.11367 0.0149353 -1.14076
thorax 6.42129 -0.0532432 0.622451
lowerneck -9.67347 3.06717 3.11447
upperneck 17.2949 4.35386 -2.68856
head 7.00528 2.13108 -0.986555
rclavicle -1.25234e-014 -1.59028e-015
rhumerus -24.4578 -0.501992 -87.4759
rradius 33.0421
rwrist -7.60447
rhand -21.012 6.48254
rfingers 7.12502
rthumb 5.36278 -23.4296
lclavicle -1.25234e-014 -1.59028e-015
lhumerus -9.87975 -8.89038 87.187
lradius 32.9275
lwrist 10.8543
lhand -19.6247 16.699
lfingers 7.12502
lthumb 6.70211 46.5729
rfemur -31.9524 3.71527 21.1466
rtibia 32.9403
rfoot -20.0202 -10.4773
rtoes 7.25209
lfemur 6.33279 7.32272 -24.1676
ltibia 14.423
lfoot -10.8034 3.84732
ltoes -14.0245
4544
root -15.1027 17.0221 -5.38134 5041.82 87.7462 -1439.68
lowerback 1.77324 -0.261514 -3.25235
upperback 7.11857 -0.0181905 -1.11228
thorax 6.41312 -0.0721612 0.66858
lowerneck -9.7777 2.998 3.00986
upperneck 17.2038 4.24166 -2.55635
head 6.98558 2.07931 -0.93603
rclavicle -1.21259e-014 -7.15625e-015
rhumerus -24.4115 -0.450319 -87.4458
rradius 32.9619
rwrist -7.49415
rhand -21.1203 6.60174
rfingers 7.12502
rthumb 5.25821 -23.313
lclavicle -1.21259e-014 -7.15625e-015
lhumerus -10.0083 -9.07807 87.3962
lradius 33.2748
lwrist 10.9981
lhand -19.6208 16.7421
lfingers 7.12502
lthumb 6.70589 46.6159
rfemur -32.1063 3.72828 21.0561
rtibia 32.1121
rfoot -19.7369 -10.1892
rtoes 7.12538
lfemur 6.91984 7.27548 -24.2161
ltibia 13.7737
lfoot -10.4932 3.81807
ltoes -14.358
4545
root -15.0164 17.0241 -5.38036 5044.04 87.9038 -1437.53
lowerback 1.79591 -0.287588 -3.28003
upperback 7.11907 -0.0547842 -1.08164
thorax 6.40232 -0.0926861 0.714602
lowerneck -9.88863 2.92864 2.91859
upperneck 17.1107 4.12836 -2.43169
head 6.9671 2.02715 -0.890202
rclavicle 9.93923e-016 -1.59028e-015
rhumerus -24.3741 -0.413558 -87.4104
rradius 32.8755
rwrist -7.39791
rhand -21.2058 6.70006
rfingers 7.12502
rthumb 5.17561 -23.2167
lclavicle 9.93923e-016 -1.59028e-015
lhumerus -10.1577 -9.25939 87.6133
lradius 33.5871
lwrist 11.1326
lhand -19.6226 16.766
lfingers 7.12502
lthumb 6.70417 46.6399
rfemur -32.2496 3.76559 20.9521
rtibia 31.3174
rfoot -19.4681 -9.86215
rtoes 7.00127
lfemur 7.50676 7.22124 -24.2612
ltibia 13.118
lfoot -10.1834 3.78039
ltoes -14.6879
4546
root -14.9287 17.0251 -5.37911 5046.66 88.0645 -1434.98
lowerback 1.81314 -0.31477 -3.30722
upperback 7.11908 -0.0928526 -1.04877
thorax 6.39426 -0.114056 0.762624
lowerneck -10.0119 2.85916 2.84103
upperneck 17.0136 4.01393 -2.31618
head 6.95025 1.97437 -0.84958
rclavicle 7.95139e-015 9.14409e-015
rhumerus -24.3455 -0.389456 -87.3676
rradius 32.7886
rwrist -7.3137
rhand -21.2693 6.76547
rfingers 7.12502
rthumb 5.11433 -23.1528
lclavicle 7.95139e-015 9.14409e-015
lhumerus -10.3177 -9.44365 87.8384
lradius 33.86
lwrist 11.2552
lhand -19.6216 16.7664
lfingers 7.12502
lthumb 6.70509 46.6402
rfemur -32.3809 3.83412 20.8304
rtibia 30.5616
rfoot -19.2344 -9.49808
rtoes 6.91444
lfemur 8.09666 7.16548 -24.3031
ltibia 12.4582
lfoot -9.87399 3.72897
ltoes -15.0009
4547
root -14.8395 17.0251 -5.37758 5049.94 88.2301 -1431.77
lowerback 1.827 -0.343203 -3.33557
upperback 7.11677 -0.132623 -1.01572
thorax 6.38582 -0.136367 0.811427
lowerneck -10.1398 2.78709 2.77383
upperneck 16.9079 3.89453 -2.20385
head 6.93176 1.91952 -0.81219
rclavicle 2.18663e-015 1.43125e-014
rhumerus -24.3258 -0.386384 -87.3177
rradius 32.697
rwrist -7.23903
rhand -21.3011 6.77641
rfingers 7.12502
rthumb 5.08365 -23.1426
lclavicle 2.18663e-015 1.43125e-014
lhumerus -10.4882 -9.63724 88.0702
lradius 34.0897
lwrist 11.3678
lhand -19.6153 16.7535
lfingers 7.12502
lthumb 6.71124 46.6272
rfemur -32.5019 3.92576 20.689
rtibia 29.8526
rfoot -19.047 -9.10331
rtoes 6.86477
lfemur 8.68752 7.11386 -24.3423
ltibia 11.7938
lfoot -9.55997 3.65385
ltoes -15.3045
4548
root -14.749 17.0238 -5.3757 5054.07 88.3956 -1427.73
lowerback 1.83061 -0.370804 -3.3689
upperback 7.1149 -0.17092 -0.980036
thorax 6.38386 -0.158439 0.865767
lowerneck -10.2624 2.71232 2.71244
upperneck 16.7833 3.77018 -2.09161
head 6.90652 1.86262 -0.776475
rclavicle -2.5842e-015 -7.15625e-015
rhumerus -24.3172 -0.401686 -87.2575
rradius 32.5997
rwrist -7.15775
rhand -21.3147 6.74922
rfingers 7.12502
rthumb 5.07053 -23.1701
lclavicle -2.5842e-015 -7.15625e-015
lhumerus -10.6604 -9.84402 88.3121
lradius 34.2686
lwrist 11.464
lhand -19.6171 16.7533
lfingers 7.12502
lthumb 6.70948 46.627
rfemur -32.6154 4.04037 20.5309
rtibia 29.1976
rfoot -18.8994 -8.70723
rtoes 6.80002
lfemur 9.28377 7.06469 -24.3773
ltibia 11.1224
lfoot -9.24042 3.55023
ltoes -15.5621
